<svg xmlns="http://www.w3.org/2000/svg" width="640" height="466" viewBox="0 0 640 466" font-family="Inter, -apple-system, 'Segoe UI', 'PingFang SC', 'Hiragino Sans GB', 'Microsoft YaHei', 'Noto Sans CJK SC', sans-serif">
  <rect width="640" height="466" rx="22" fill="#0e0e1a"/>
  <rect x="0.5" y="0.5" width="639" height="465" rx="22" fill="none" stroke="#ffffff" stroke-opacity=".1"/>
  <text x="32" y="58" font-size="28" font-weight="700" fill="#f4f2fb">沃尔玛 2027 财年 Q2 电商同比增长</text>
  <line x1="76" x2="612" y1="376.0" y2="376.0" stroke="#ffffff" stroke-opacity="0.16"/><text x="64" y="381.0" font-size="16" fill="#6f6d85" text-anchor="end">0%</text>
  <line x1="76" x2="612" y1="306.0" y2="306.0" stroke="#ffffff" stroke-opacity="0.07"/><text x="64" y="311.0" font-size="16" fill="#6f6d85" text-anchor="end">8%</text>
  <line x1="76" x2="612" y1="236.0" y2="236.0" stroke="#ffffff" stroke-opacity="0.07"/><text x="64" y="241.0" font-size="16" fill="#6f6d85" text-anchor="end">15%</text>
  <line x1="76" x2="612" y1="166.0" y2="166.0" stroke="#ffffff" stroke-opacity="0.07"/><text x="64" y="171.0" font-size="16" fill="#6f6d85" text-anchor="end">22%</text>
  <line x1="76" x2="612" y1="96.0" y2="96.0" stroke="#ffffff" stroke-opacity="0.07"/><text x="64" y="101.0" font-size="16" fill="#6f6d85" text-anchor="end">30%</text>
  <rect x="133.3" y="152.0" width="60.0" height="224.0" rx="6" fill="#ff3d8b"/><text x="163.3" y="143.0" font-size="16" font-weight="600" fill="#f4f2fb" text-anchor="middle">24%</text>
  <rect x="312.0" y="198.7" width="60.0" height="177.3" rx="6" fill="#ff3d8b"/><text x="342.0" y="189.7" font-size="16" font-weight="600" fill="#f4f2fb" text-anchor="middle">19%</text>
  <rect x="490.7" y="133.3" width="60.0" height="242.7" rx="6" fill="#ff3d8b"/><text x="520.7" y="124.3" font-size="16" font-weight="600" fill="#f4f2fb" text-anchor="middle">26%</text>
  <text x="165.3" y="402" font-size="16" fill="#a3a1b8" text-anchor="middle">沃尔玛美国</text>
  <text x="344.0" y="402" font-size="16" fill="#a3a1b8" text-anchor="middle">沃尔玛国际</text>
  <text x="522.7" y="402" font-size="16" fill="#a3a1b8" text-anchor="middle">山姆会员店（美国）</text>
  <text x="32" y="446" font-size="15" fill="#6f6d85">来源：沃尔玛 2027 财年第二季度财报（2026 年 8 月 20 日）</text>
</svg>
