<svg xmlns="http://www.w3.org/2000/svg" width="640" height="516" viewBox="0 0 640 516" font-family="Inter, -apple-system, 'Segoe UI', 'PingFang SC', 'Hiragino Sans GB', 'Microsoft YaHei', 'Noto Sans CJK SC', sans-serif">
  <rect width="640" height="516" rx="22" fill="#0e0e1a"/>
  <rect x="0.5" y="0.5" width="639" height="515" rx="22" fill="none" stroke="#ffffff" stroke-opacity=".1"/>
  <text x="32" y="58" font-size="28" font-weight="700" fill="#f4f2fb">示例：1 美元关键词竞价下的最高出价</text>
  <rect x="32" y="84" width="14" height="14" rx="3" fill="#ff3d8b"/><text x="54" y="96" font-size="17" fill="#a3a1b8">搜索结果顶部（+50% 调整）</text>
  <rect x="291.52000000000004" y="84" width="14" height="14" rx="3" fill="#8b6cff"/><text x="313.52000000000004" y="96" font-size="17" fill="#a3a1b8">商品详情页（不调整）</text>
  <line x1="76" x2="612" y1="406.0" y2="406.0" stroke="#ffffff" stroke-opacity="0.16"/><text x="64" y="411.0" font-size="16" fill="#6f6d85" text-anchor="end">$0.00</text>
  <line x1="76" x2="612" y1="336.0" y2="336.0" stroke="#ffffff" stroke-opacity="0.07"/><text x="64" y="341.0" font-size="16" fill="#6f6d85" text-anchor="end">$0.75</text>
  <line x1="76" x2="612" y1="266.0" y2="266.0" stroke="#ffffff" stroke-opacity="0.07"/><text x="64" y="271.0" font-size="16" fill="#6f6d85" text-anchor="end">$1.50</text>
  <line x1="76" x2="612" y1="196.0" y2="196.0" stroke="#ffffff" stroke-opacity="0.07"/><text x="64" y="201.0" font-size="16" fill="#6f6d85" text-anchor="end">$2.25</text>
  <line x1="76" x2="612" y1="126.0" y2="126.0" stroke="#ffffff" stroke-opacity="0.07"/><text x="64" y="131.0" font-size="16" fill="#6f6d85" text-anchor="end">$3.00</text>
  <rect x="102.8" y="266.0" width="58.5" height="140.0" rx="6" fill="#ff3d8b"/><text x="132.1" y="257.0" font-size="13" font-weight="600" fill="#f4f2fb" text-anchor="middle">$1.50</text>
  <rect x="165.3" y="312.7" width="58.5" height="93.3" rx="6" fill="#8b6cff"/><text x="194.6" y="303.7" font-size="13" font-weight="600" fill="#f4f2fb" text-anchor="middle">$1.00</text>
  <rect x="281.5" y="266.0" width="58.5" height="140.0" rx="6" fill="#ff3d8b"/><text x="310.7" y="257.0" font-size="13" font-weight="600" fill="#f4f2fb" text-anchor="middle">$1.50</text>
  <rect x="344.0" y="312.7" width="58.5" height="93.3" rx="6" fill="#8b6cff"/><text x="373.3" y="303.7" font-size="13" font-weight="600" fill="#f4f2fb" text-anchor="middle">$1.00</text>
  <rect x="460.1" y="126.0" width="58.5" height="280.0" rx="6" fill="#ff3d8b"/><text x="489.4" y="117.0" font-size="13" font-weight="600" fill="#f4f2fb" text-anchor="middle">$3.00</text>
  <rect x="522.7" y="219.3" width="58.5" height="186.7" rx="6" fill="#8b6cff"/><text x="551.9" y="210.3" font-size="13" font-weight="600" fill="#f4f2fb" text-anchor="middle">$2.00</text>
  <text x="165.3" y="432" font-size="16" fill="#a3a1b8" text-anchor="middle">固定竞价</text>
  <text x="344.0" y="432" font-size="16" fill="#a3a1b8" text-anchor="middle">动态竞价 – 仅降低</text>
  <text x="522.7" y="432" font-size="16" fill="#a3a1b8" text-anchor="middle">动态竞价 – 提高和降低</text>
  <text x="32" y="476" font-size="15" fill="#6f6d85">来源：Amazon Ads 官方指南（动态竞价最多上调 100%；广告位调整最高 900%）。计</text>
  <text x="32" y="496" font-size="15" fill="#6f6d85">算：1 美元 ×（1 + 广告位调整）× 最多 2 倍（提高和降低）。</text>
</svg>
