<svg xmlns="http://www.w3.org/2000/svg" width="640" height="486" viewBox="0 0 640 486" font-family="Inter, -apple-system, 'Segoe UI', 'PingFang SC', 'Hiragino Sans GB', 'Microsoft YaHei', 'Noto Sans CJK SC', sans-serif">
  <rect width="640" height="486" rx="22" fill="#0e0e1a"/>
  <rect x="0.5" y="0.5" width="639" height="485" rx="22" fill="none" stroke="#ffffff" stroke-opacity=".1"/>
  <text x="32" y="58" font-size="28" font-weight="700" fill="#f4f2fb">WFS 按运输重量计算的单件基础配送费</text>
  <line x1="76" x2="612" y1="376.0" y2="376.0" stroke="#ffffff" stroke-opacity="0.16"/><text x="64" y="381.0" font-size="16" fill="#6f6d85" text-anchor="end">$0.00</text>
  <line x1="76" x2="612" y1="306.0" y2="306.0" stroke="#ffffff" stroke-opacity="0.07"/><text x="64" y="311.0" font-size="16" fill="#6f6d85" text-anchor="end">$3.75</text>
  <line x1="76" x2="612" y1="236.0" y2="236.0" stroke="#ffffff" stroke-opacity="0.07"/><text x="64" y="241.0" font-size="16" fill="#6f6d85" text-anchor="end">$7.50</text>
  <line x1="76" x2="612" y1="166.0" y2="166.0" stroke="#ffffff" stroke-opacity="0.07"/><text x="64" y="171.0" font-size="16" fill="#6f6d85" text-anchor="end">$11.25</text>
  <line x1="76" x2="612" y1="96.0" y2="96.0" stroke="#ffffff" stroke-opacity="0.07"/><text x="64" y="101.0" font-size="16" fill="#6f6d85" text-anchor="end">$15.00</text>
  <rect x="87.5" y="311.6" width="49.6" height="64.4" rx="6" fill="#ff3d8b"/><text x="112.3" y="302.6" font-size="16" font-weight="600" fill="#f4f2fb" text-anchor="middle">$3.45</text>
  <rect x="164.1" y="283.6" width="49.6" height="92.4" rx="6" fill="#ff3d8b"/><text x="188.9" y="274.6" font-size="16" font-weight="600" fill="#f4f2fb" text-anchor="middle">$4.95</text>
  <rect x="240.6" y="274.3" width="49.6" height="101.7" rx="6" fill="#ff3d8b"/><text x="265.4" y="265.3" font-size="16" font-weight="600" fill="#f4f2fb" text-anchor="middle">$5.45</text>
  <rect x="317.2" y="268.7" width="49.6" height="107.3" rx="6" fill="#ff3d8b"/><text x="342.0" y="259.7" font-size="16" font-weight="600" fill="#f4f2fb" text-anchor="middle">$5.75</text>
  <rect x="393.8" y="261.2" width="49.6" height="114.8" rx="6" fill="#ff3d8b"/><text x="418.6" y="252.2" font-size="16" font-weight="600" fill="#f4f2fb" text-anchor="middle">$6.15</text>
  <rect x="470.3" y="223.9" width="49.6" height="152.1" rx="6" fill="#ff3d8b"/><text x="495.1" y="214.9" font-size="16" font-weight="600" fill="#f4f2fb" text-anchor="middle">$8.15</text>
  <rect x="546.9" y="149.2" width="49.6" height="226.8" rx="6" fill="#ff3d8b"/><text x="571.7" y="140.2" font-size="16" font-weight="600" fill="#f4f2fb" text-anchor="middle">$12.15</text>
  <text x="114.3" y="402" font-size="16" fill="#a3a1b8" text-anchor="middle">1 磅</text>
  <text x="190.9" y="402" font-size="16" fill="#a3a1b8" text-anchor="middle">2 磅</text>
  <text x="267.4" y="402" font-size="16" fill="#a3a1b8" text-anchor="middle">3 磅</text>
  <text x="344.0" y="402" font-size="16" fill="#a3a1b8" text-anchor="middle">4 磅</text>
  <text x="420.6" y="402" font-size="16" fill="#a3a1b8" text-anchor="middle">5 磅</text>
  <text x="497.1" y="402" font-size="16" fill="#a3a1b8" text-anchor="middle">10 磅</text>
  <text x="573.7" y="402" font-size="16" fill="#a3a1b8" text-anchor="middle">20 磅</text>
  <text x="32" y="446" font-size="15" fill="#6f6d85">来源：Walmart Marketplace Learn《WFS fees》（2026 年 5 月 27 日更新）。4–20</text>
  <text x="32" y="466" font-size="15" fill="#6f6d85">磅计算：5.75 美元 + 超过 4 磅部分每磅 0.40 美元。</text>
</svg>
