<svg xmlns="http://www.w3.org/2000/svg" width="640" height="572" viewBox="0 0 640 572" font-family="Inter, -apple-system, 'Segoe UI', 'PingFang SC', 'Hiragino Sans GB', 'Microsoft YaHei', 'Noto Sans CJK SC', sans-serif">
  <rect width="640" height="572" rx="22" fill="#0e0e1a"/>
  <rect x="0.5" y="0.5" width="639" height="571" rx="22" fill="none" stroke="#ffffff" stroke-opacity=".1"/>
  <text x="32" y="58" font-size="28" font-weight="700" fill="#f4f2fb">Monthly agency fee at different sales</text>
  <text x="32" y="94" font-size="28" font-weight="700" fill="#f4f2fb">levels (worked example)</text>
  <rect x="32" y="120" width="14" height="14" rx="3" fill="#ff3d8b"/><text x="54" y="132" font-size="17" fill="#a3a1b8">Fixed fee + 1% of ad sales</text>
  <rect x="292.8800000000001" y="120" width="14" height="14" rx="3" fill="#8b6cff"/><text x="314.8800000000001" y="132" font-size="17" fill="#a3a1b8">5% of net revenue</text>
  <line x1="76" x2="612" y1="442.0" y2="442.0" stroke="#ffffff" stroke-opacity="0.16"/><text x="64" y="447.0" font-size="16" fill="#6f6d85" text-anchor="end">$0</text>
  <line x1="76" x2="612" y1="372.0" y2="372.0" stroke="#ffffff" stroke-opacity="0.07"/><text x="64" y="377.0" font-size="16" fill="#6f6d85" text-anchor="end">$2,500</text>
  <line x1="76" x2="612" y1="302.0" y2="302.0" stroke="#ffffff" stroke-opacity="0.07"/><text x="64" y="307.0" font-size="16" fill="#6f6d85" text-anchor="end">$5,000</text>
  <line x1="76" x2="612" y1="232.0" y2="232.0" stroke="#ffffff" stroke-opacity="0.07"/><text x="64" y="237.0" font-size="16" fill="#6f6d85" text-anchor="end">$7,500</text>
  <line x1="76" x2="612" y1="162.0" y2="162.0" stroke="#ffffff" stroke-opacity="0.07"/><text x="64" y="167.0" font-size="16" fill="#6f6d85" text-anchor="end">$10,000</text>
  <rect x="96.1" y="411.2" width="42.9" height="30.8" rx="6" fill="#ff3d8b"/><text x="117.5" y="402.2" font-size="13" font-weight="600" fill="#f4f2fb" text-anchor="middle">$1,099</text>
  <rect x="143.0" y="414.0" width="42.9" height="28.0" rx="6" fill="#8b6cff"/><text x="164.4" y="405.0" font-size="13" font-weight="600" fill="#f4f2fb" text-anchor="middle">$1,000</text>
  <rect x="230.1" y="407.0" width="42.9" height="35.0" rx="6" fill="#ff3d8b"/><text x="251.5" y="398.0" font-size="13" font-weight="600" fill="#f4f2fb" text-anchor="middle">$1,249</text>
  <rect x="277.0" y="372.0" width="42.9" height="70.0" rx="6" fill="#8b6cff"/><text x="298.4" y="363.0" font-size="13" font-weight="600" fill="#f4f2fb" text-anchor="middle">$2,500</text>
  <rect x="364.1" y="400.0" width="42.9" height="42.0" rx="6" fill="#ff3d8b"/><text x="385.6" y="391.0" font-size="13" font-weight="600" fill="#f4f2fb" text-anchor="middle">$1,499</text>
  <rect x="411.0" y="302.0" width="42.9" height="140.0" rx="6" fill="#8b6cff"/><text x="432.4" y="293.0" font-size="13" font-weight="600" fill="#f4f2fb" text-anchor="middle">$5,000</text>
  <rect x="498.1" y="386.0" width="42.9" height="56.0" rx="6" fill="#ff3d8b"/><text x="519.6" y="377.0" font-size="13" font-weight="600" fill="#f4f2fb" text-anchor="middle">$1,999</text>
  <rect x="545.0" y="162.0" width="42.9" height="280.0" rx="6" fill="#8b6cff"/><text x="566.5" y="153.0" font-size="13" font-weight="600" fill="#f4f2fb" text-anchor="middle">$10,000</text>
  <text x="143.0" y="468" font-size="16" fill="#a3a1b8" text-anchor="middle">$20K sales</text>
  <text x="277.0" y="468" font-size="16" fill="#a3a1b8" text-anchor="middle">$50K sales</text>
  <text x="411.0" y="468" font-size="16" fill="#a3a1b8" text-anchor="middle">$100K sales</text>
  <text x="545.0" y="468" font-size="16" fill="#a3a1b8" text-anchor="middle">$200K sales</text>
  <text x="32" y="512" font-size="15" fill="#6f6d85">Source: Atronia Innovations published pricing. Calculation assumes ≤10 SKUs,</text>
  <text x="32" y="532" font-size="15" fill="#6f6d85">ad-generated sales = 50% of sales, no returns, setup fee excluded: $999 + 1%</text>
  <text x="32" y="552" font-size="15" fill="#6f6d85">× ad sales vs 5% × net revenue.</text>
</svg>
