<svg xmlns="http://www.w3.org/2000/svg" width="640" height="544" viewBox="0 0 640 544" font-family="Inter, -apple-system, 'Segoe UI', 'PingFang SC', 'Hiragino Sans GB', 'Microsoft YaHei', 'Noto Sans CJK SC', sans-serif">
  <rect width="640" height="544" rx="22" fill="#0e0e1a"/>
  <rect x="0.5" y="0.5" width="639" height="543" rx="22" fill="none" stroke="#ffffff" stroke-opacity=".1"/>
  <text x="32" y="58" font-size="28" font-weight="700" fill="#f4f2fb">2026 年节日季各类目预测最大折扣</text>
  <text x="196.0" y="112" font-size="18" fill="#d9d6e6" text-anchor="end">电子产品（网一）</text>
  <rect x="210.0" y="94" width="334.0" height="24" rx="6" fill="#ff3d8b"/><text x="554.0" y="112" font-size="18" font-weight="600" fill="#f4f2fb">30%</text>
  <text x="196.0" y="164" font-size="18" fill="#d9d6e6" text-anchor="end">玩具（黑五）</text>
  <rect x="210.0" y="146" width="322.9" height="24" rx="6" fill="#ff3d8b"/><text x="542.9" y="164" font-size="18" font-weight="600" fill="#f4f2fb">29%</text>
  <text x="196.0" y="216" font-size="18" fill="#d9d6e6" text-anchor="end">电视（黑五）</text>
  <rect x="210.0" y="198" width="256.1" height="24" rx="6" fill="#ff3d8b"/><text x="476.1" y="216" font-size="18" font-weight="600" fill="#f4f2fb">23%</text>
  <text x="196.0" y="268" font-size="18" fill="#d9d6e6" text-anchor="end">服装（黑五）</text>
  <rect x="210.0" y="250" width="256.1" height="24" rx="6" fill="#ff3d8b"/><text x="476.1" y="268" font-size="18" font-weight="600" fill="#f4f2fb">23%</text>
  <text x="196.0" y="320" font-size="18" fill="#d9d6e6" text-anchor="end">电脑（网一）</text>
  <rect x="210.0" y="302" width="256.1" height="24" rx="6" fill="#ff3d8b"/><text x="476.1" y="320" font-size="18" font-weight="600" fill="#f4f2fb">23%</text>
  <text x="196.0" y="372" font-size="18" fill="#d9d6e6" text-anchor="end">运动用品（感恩节）</text>
  <rect x="210.0" y="354" width="211.5" height="24" rx="6" fill="#ff3d8b"/><text x="431.5" y="372" font-size="18" font-weight="600" fill="#f4f2fb">19%</text>
  <text x="196.0" y="424" font-size="18" fill="#d9d6e6" text-anchor="end">家电（黑五）</text>
  <rect x="210.0" y="406" width="200.4" height="24" rx="6" fill="#ff3d8b"/><text x="420.4" y="424" font-size="18" font-weight="600" fill="#f4f2fb">18%</text>
  <text x="196.0" y="476" font-size="18" fill="#d9d6e6" text-anchor="end">家具（黑五）</text>
  <rect x="210.0" y="458" width="200.4" height="24" rx="6" fill="#ff3d8b"/><text x="420.4" y="476" font-size="18" font-weight="600" fill="#f4f2fb">18%</text>
  <text x="32" y="524" font-size="15" fill="#6f6d85">来源：Adobe Digital Insights《2026 U.S. Holiday Forecast》（2026 年 9 月）</text>
</svg>
